<svg id="Layer_1" data-name="Layer 1" xmlns="http://www.w3.org/2000/svg" viewBox="0 0 496.77 286.52"><defs><style>.cls-1{opacity:0.32;}.cls-2,.cls-3,.cls-4,.cls-5{stroke:#000;}.cls-2,.cls-3,.cls-4,.cls-5,.cls-8,.cls-9{stroke-miterlimit:10;}.cls-2{stroke-width:7px;}.cls-3,.cls-8{stroke-width:3px;}.cls-4,.cls-9{stroke-width:4px;}.cls-5{stroke-width:2px;}.cls-6{fill:#05bfc4;}.cls-7{fill:#009245;}.cls-8,.cls-9{fill:#8d807b;stroke:#8d807b;}.cls-10{font-size:44.15px;font-family:ABeeZee-Regular, ABeeZee;}.cls-11{letter-spacing:-0.01em;}</style></defs><title>logo3</title><g class="cls-1"><path class="cls-2" d="M233.37,76.93a67.39,67.39,0,0,1-15.93,41.95c-3.58,4.32-8,7.94-12.11,11.8-1.63,1.53-3,1.54-3.88.26-1.1-1.66,0-2.66,1.2-3.59,9.84-7.51,17.34-16.92,21.64-28.53,9.2-24.83,5.33-47.65-11.5-68.11-2.73-3.32-6.2-6-9.36-9-1-1-1.94-2-.89-3.36s2.19-1.07,3.41-.11A70.93,70.93,0,0,1,225.09,41C230.57,51.37,233.32,62.41,233.37,76.93Z"/><path class="cls-3" d="M160.61,74.43c0,1.75,0,3.51,0,5.26-.08,3-1.21,5-2.74,5s-2.83-2-2.88-5.05q-.08-5.26,0-10.52c0-3,1.35-5.16,2.88-5.08s2.67,2.18,2.74,5.08C160.65,70.92,160.61,72.68,160.61,74.43Z"/><path class="cls-4" d="M218,74.37c-.62,18.62-7.93,33.81-22.64,45.31l-.63.47a2.11,2.11,0,1,1-2.66-3.26c2.22-2,4.55-3.79,6.63-5.88,19.8-19.91,19.83-53.37.09-73.33-1.7-1.72-3.57-3.29-5.41-4.88-1.12-1-1.79-2.06-.77-3.39s2.27-1,3.43,0a56.47,56.47,0,0,1,21.5,38.93C217.8,70.35,217.88,72.38,218,74.37Z"/><path class="cls-4" d="M203.82,75.81c-.32,13.13-6.17,25.29-17.92,34.55-1.19.94-2.4,1.3-3.42,0s-.33-2.45.84-3.35a39.63,39.63,0,0,0,13.14-17.16c5.27-13.51,4-26.45-4.11-38.47-2.25-3.32-5.47-6-8.19-9a4.59,4.59,0,0,1-1.3-2.26,2.16,2.16,0,0,1,1.2-1.75,3.23,3.23,0,0,1,2.45.51A42.34,42.34,0,0,1,196.69,50C201.33,57.32,203.76,65.34,203.82,75.81Z"/><path class="cls-4" d="M189.48,75.46a32.13,32.13,0,0,1-12.25,24.23c-1.21,1-2.47,1.86-3.75.35s-.23-2.62,1-3.62c8.08-6.65,11.67-15.19,10.45-25.59A26.66,26.66,0,0,0,176,53.77l-1.62-1.44c-1-.93-1.3-2-.34-3.1s2.08-.9,3.15-.06a32.06,32.06,0,0,1,9,11.07A33.59,33.59,0,0,1,189.48,75.46Z"/><path class="cls-4" d="M175.63,75.33a21.84,21.84,0,0,1-8.25,16.35c-1.15,1-2.36,1.4-3.45.12s-.47-2.45.7-3.36a17.71,17.71,0,0,0,.09-27.77c-1.11-.87-1.92-2-.8-3.37s2.39-.81,3.59.16A22.42,22.42,0,0,1,175.63,75.33Z"/></g><path d="M159.07,207.56a12.77,12.77,0,0,1-12.89,12.89H22.94a12.93,12.93,0,0,1-12.89-12.89V30.95A12.93,12.93,0,0,1,22.94,18.06H143.61a12.89,12.89,0,1,1,0,25.78H35.84V106h95.39a12.93,12.93,0,0,1,12.89,12.89,12.77,12.77,0,0,1-12.89,12.89H35.84v62.91H146.18A12.77,12.77,0,0,1,159.07,207.56Z"/><path class="cls-5" d="M169.36,221.31a5,5,0,0,1-4.54-7.26l33.56-69.14a5.16,5.16,0,0,1,4.54-2.82,5,5,0,0,1,4.54,2.82l33.76,69a5,5,0,0,1-9.07,4.43l-7.86-16.23a35.81,35.81,0,0,0-16.73-.6,60.28,60.28,0,0,0-17.23,6.15,89.92,89.92,0,0,0-17.54,12.19A5,5,0,0,1,169.36,221.31Zm33.56-62.69-20.26,41.83c.91-.5,1.81-1,2.82-1.51a69.65,69.65,0,0,1,20.16-7.26,48.38,48.38,0,0,1,13.1-.71Z"/><path class="cls-5" d="M264.86,221.31a5.05,5.05,0,0,1-5-5V147.13a5,5,0,0,1,5-5h29.93A25.69,25.69,0,0,1,312,149.15a21.9,21.9,0,0,1,5.24,8.06,30.61,30.61,0,0,1,2,11.69c0,9.47-4,16.83-11.59,21.17a27.22,27.22,0,0,1-6,2.52,52.53,52.53,0,0,1,11.39,14c2.62,4.43,5.44,4.43,5.85,4.43a5,5,0,0,1,1.41,10,14.18,14.18,0,0,1-6.15-.71,18.62,18.62,0,0,1-9.78-8.67,40.48,40.48,0,0,0-12.9-14,20.53,20.53,0,0,0-6.35-3,4.91,4.91,0,0,1-4-5.44,5,5,0,0,1,5-4.54q10.73,0,16.63-3.33c4.43-2.52,6.45-6.45,6.45-12.4a19.77,19.77,0,0,0-2.22-10,12.77,12.77,0,0,0-4.64-4.64,17.09,17.09,0,0,0-7.56-2.12H269.9v64.1A5.05,5.05,0,0,1,264.86,221.31Z"/><path class="cls-5" d="M397.59,147.13a5,5,0,0,1-5,5H370.48v64.1a5.05,5.05,0,0,1-5,5,5,5,0,0,1-5-5v-64.1H338.22a5,5,0,0,1,0-10.08h54.32A5,5,0,0,1,397.59,147.13Z"/><path class="cls-5" d="M478.37,146.93v69.14a5.05,5.05,0,0,1-5,5,5.12,5.12,0,0,1-5-5V185.83H424.85v30.23a5,5,0,1,1-10.08,0V146.93a5,5,0,0,1,10.08,0v28.82h43.44V146.93a5.05,5.05,0,0,1,5-5A5,5,0,0,1,478.37,146.93Z"/><path d="M483.24,74.6a57.51,57.51,0,0,1-57.79,57.28c-31.35,0-57.35-26.22-57.13-57.54.22-31.8,26-57.51,57.5-57.41A57.52,57.52,0,0,1,483.24,74.6ZM454.83,37.08c2.12,8.36-2.53,13.69-7.15,19.19a13.57,13.57,0,0,0-2.45,6.42c-.42,2.67-.11,5.45-.16,8.17-.12,7.54-1.56,14.67-6.7,20.55a12.65,12.65,0,0,1-19.25-.2,21.05,21.05,0,0,1-4.87-11.6c-.62-5.72-3.22-9.73-7.49-13.58-7.13-6.42-11.36-14.56-10.43-24.65.12-1.32,0-2.66,0-4.06C379.8,48.91,373.83,73.89,381.49,91c.49-.12,1-.25,1.51-.37,6.74-1.52,13.52-2.21,20.28-.27,11.11,3.18,14.37,14,7,22.84-.87,1-1.88,2-2.82,3l-1.33,1.41a47.31,47.31,0,0,0,61.54-20.45C480.37,73.8,470.45,48,454.83,37.08ZM425.51,26.27c-4.92,1-10,2-15,3.08a2.75,2.75,0,0,0-1.79,1.18C406,37,404.7,43.72,407.5,50.35A22.72,22.72,0,0,0,414,59.24a24.51,24.51,0,0,1,9.85,17.9,20.69,20.69,0,0,0,2.37,7c1.2,2.36,3.73,2.48,5.08.22a24,24,0,0,0,3.28-7.63,53,53,0,0,0,.51-10.65,25.34,25.34,0,0,1,7.09-18.83,12.39,12.39,0,0,0,.7-16.13,5.84,5.84,0,0,0-3-2.17C435.2,28,430.5,27.2,425.51,26.27Zm-39.8,74.17c2,2.5,3.74,4.81,5.67,6.89,5.13,5.5,6.89,5.36,11.65-.66,2.41-3,1.82-5.29-1.84-6.62C396.16,98.24,391.19,99.22,385.71,100.44Z"/><path class="cls-6" d="M454.83,37.08C470.45,48,480.37,73.8,467.63,97.16a47.31,47.31,0,0,1-61.54,20.45l1.33-1.41c.94-1,1.94-1.93,2.82-3,7.4-8.88,4.14-19.66-7-22.84-6.76-1.94-13.54-1.25-20.28.27-.51.12-1,.25-1.51.37-7.66-17.13-1.69-42.11,14.85-53.69,0,1.39.11,2.74,0,4.06-.93,10.09,3.3,18.23,10.43,24.65,4.28,3.85,6.87,7.86,7.49,13.58a21.05,21.05,0,0,0,4.87,11.6,12.65,12.65,0,0,0,19.25.2c5.14-5.88,6.59-13,6.7-20.55,0-2.73-.27-5.51.16-8.17a13.57,13.57,0,0,1,2.45-6.42C452.3,50.77,457,45.44,454.83,37.08Z"/><path class="cls-7" d="M425.51,26.27c5,.92,9.7,1.69,14.33,2.73a5.84,5.84,0,0,1,3,2.17,12.39,12.39,0,0,1-.7,16.13,25.34,25.34,0,0,0-7.09,18.83,53,53,0,0,1-.51,10.65,24,24,0,0,1-3.28,7.63c-1.35,2.26-3.88,2.14-5.08-.22a20.69,20.69,0,0,1-2.37-7A24.51,24.51,0,0,0,414,59.24a22.72,22.72,0,0,1-6.49-8.89C404.7,43.72,406,37,408.76,30.53a2.75,2.75,0,0,1,1.79-1.18C415.55,28.26,420.59,27.27,425.51,26.27Z"/><path class="cls-7" d="M385.71,100.44c5.48-1.22,10.46-2.2,15.48-.38,3.67,1.33,4.26,3.57,1.84,6.62-4.76,6-6.51,6.15-11.65.66C389.44,105.25,387.76,102.94,385.71,100.44Z"/><path d="M348.22,26.74v94.53a6.91,6.91,0,0,1-6.89,6.89,7,7,0,0,1-6.89-6.89V79.93H275v41.34a6.89,6.89,0,0,1-13.78,0V26.74a6.89,6.89,0,0,1,13.78,0V66.15h59.39V26.74a6.91,6.91,0,0,1,6.89-6.89A6.82,6.82,0,0,1,348.22,26.74Z"/><path class="cls-2" d="M168.95,72.36a67.39,67.39,0,0,1,15.93-41.95c3.58-4.32,8-7.94,12.11-11.8,1.63-1.53,3-1.54,3.88-.26,1.1,1.66,0,2.66-1.2,3.59-9.84,7.51-17.34,16.92-21.64,28.53-9.2,24.83-5.33,47.65,11.5,68.11,2.73,3.32,6.2,6,9.36,9,1,1,1.94,2,.89,3.36s-2.19,1.07-3.41.11a70.93,70.93,0,0,1-19.15-22.77C171.75,97.92,169,86.88,168.95,72.36Z"/><path class="cls-8" d="M241.71,74.86c0-1.75,0-3.51,0-5.26.08-3,1.21-5,2.74-5s2.83,2,2.88,5.05q.08,5.26,0,10.52c0,3-1.35,5.16-2.88,5.08s-2.67-2.18-2.74-5.08C241.67,78.37,241.71,76.61,241.71,74.86Z"/><path class="cls-9" d="M184.3,74.92c.62-18.62,7.93-33.81,22.64-45.31l.63-.47a2.11,2.11,0,1,1,2.66,3.26c-2.22,2-4.55,3.79-6.63,5.88-19.8,19.91-19.83,53.37-.09,73.33,1.7,1.72,3.57,3.29,5.41,4.88,1.12,1,1.79,2.06.77,3.39s-2.27,1-3.43,0A56.47,56.47,0,0,1,184.75,81C184.52,78.94,184.44,76.91,184.3,74.92Z"/><path class="cls-9" d="M198.5,73.48c.32-13.13,6.17-25.29,17.92-34.55,1.19-.94,2.4-1.3,3.42,0s.33,2.45-.84,3.35a39.63,39.63,0,0,0-13.14,17.16c-5.27,13.51-4,26.45,4.11,38.47,2.25,3.32,5.47,6,8.19,9a4.59,4.59,0,0,1,1.3,2.26,2.16,2.16,0,0,1-1.2,1.75,3.23,3.23,0,0,1-2.45-.51,42.34,42.34,0,0,1-10.2-11.14C201,92,198.56,83.95,198.5,73.48Z"/><path class="cls-9" d="M212.84,73.83a32.13,32.13,0,0,1,12.25-24.23c1.21-1,2.47-1.86,3.75-.35s.23,2.62-1,3.62c-8.08,6.65-11.67,15.19-10.45,25.59a26.66,26.66,0,0,0,8.94,17.06L228,97c1,.93,1.3,2,.34,3.1s-2.08.9-3.15.06a32.06,32.06,0,0,1-9-11.07A33.59,33.59,0,0,1,212.84,73.83Z"/><path class="cls-9" d="M226.69,74a21.84,21.84,0,0,1,8.25-16.35c1.15-1,2.36-1.4,3.45-.12s.47,2.45-.7,3.36a17.71,17.71,0,0,0-.09,27.77c1.11.87,1.92,2,.8,3.37s-2.39.81-3.59-.16A22.42,22.42,0,0,1,226.69,74Z"/><text class="cls-10" transform="translate(258.05 259.84)">experien<tspan class="cls-11" x="175.98" y="0">c</tspan><tspan x="196.38" y="0">e</tspan></text></svg>